<?xml version="1.0" encoding="UTF-8" standalone="no"?>
<!-- Created with Inkscape (http://www.inkscape.org/) -->

<svg
   width="361.94998mm"
   height="361.94995mm"
   viewBox="0 0 361.94998 361.94995"
   version="1.1"
   id="svg1"
   sodipodi:docname="logo.svg"
   inkscape:version="1.3 (0e150ed6c4, 2023-07-21)"
   xml:space="preserve"
   xmlns:inkscape="http://www.inkscape.org/namespaces/inkscape"
   xmlns:sodipodi="http://sodipodi.sourceforge.net/DTD/sodipodi-0.dtd"
   xmlns:xlink="http://www.w3.org/1999/xlink"
   xmlns="http://www.w3.org/2000/svg"
   xmlns:svg="http://www.w3.org/2000/svg"><sodipodi:namedview
     id="namedview1"
     pagecolor="#ffffff"
     bordercolor="#000000"
     borderopacity="0.25"
     inkscape:showpageshadow="2"
     inkscape:pageopacity="0.0"
     inkscape:pagecheckerboard="0"
     inkscape:deskcolor="#d1d1d1"
     inkscape:document-units="mm"
     inkscape:zoom="0.35355339"
     inkscape:cx="1641.9019"
     inkscape:cy="2746.4027"
     inkscape:window-width="1916"
     inkscape:window-height="2041"
     inkscape:window-x="1911"
     inkscape:window-y="0"
     inkscape:window-maximized="0"
     inkscape:current-layer="svg1" /><defs
     id="defs1"><linearGradient
       id="linearGradient46"
       inkscape:collect="always"><stop
         style="stop-color:#cbf1f5;stop-opacity:1"
         offset="0"
         id="stop46" /><stop
         style="stop-color:#fdfff8;stop-opacity:1"
         offset="1"
         id="stop47" /></linearGradient><linearGradient
       id="linearGradient44"
       inkscape:collect="always"><stop
         style="stop-color:#beeef4;stop-opacity:1"
         offset="0"
         id="stop44" /><stop
         style="stop-color:#fdfef9;stop-opacity:1"
         offset="1"
         id="stop45" /></linearGradient><linearGradient
       id="linearGradient42"
       inkscape:collect="always"><stop
         style="stop-color:#003a6b;stop-opacity:1"
         offset="0"
         id="stop42" /><stop
         style="stop-color:#00769a;stop-opacity:1"
         offset="1"
         id="stop43" /></linearGradient><linearGradient
       id="linearGradient39"
       inkscape:collect="always"><stop
         style="stop-color:#016391;stop-opacity:1"
         offset="0"
         id="stop39" /><stop
         style="stop-color:#0c9ebd;stop-opacity:1"
         offset="1"
         id="stop40" /></linearGradient><linearGradient
       id="linearGradient37"
       inkscape:collect="always"><stop
         style="stop-color:#00719a;stop-opacity:1"
         offset="0"
         id="stop37" /><stop
         style="stop-color:#05cadd;stop-opacity:1"
         offset="1"
         id="stop38" /></linearGradient><linearGradient
       id="linearGradient27"
       inkscape:collect="always"><stop
         style="stop-color:#084c57;stop-opacity:1"
         offset="0"
         id="stop27" /><stop
         style="stop-color:#30896d;stop-opacity:1"
         offset="1"
         id="stop28" /></linearGradient><linearGradient
       id="linearGradient23"
       inkscape:collect="always"><stop
         style="stop-color:#3c8f4b;stop-opacity:1"
         offset="0"
         id="stop23" /><stop
         style="stop-color:#8bc94a;stop-opacity:1"
         offset="1"
         id="stop24" /></linearGradient><linearGradient
       id="linearGradient20"
       inkscape:collect="always"><stop
         style="stop-color:#b5d960;stop-opacity:1"
         offset="0"
         id="stop20" /><stop
         style="stop-color:#c0e867;stop-opacity:1"
         offset="1"
         id="stop21" /></linearGradient><linearGradient
       inkscape:collect="always"
       xlink:href="#linearGradient37"
       id="linearGradient60"
       gradientUnits="userSpaceOnUse"
       x1="339.19583"
       y1="254.39688"
       x2="352.95416"
       y2="272.52084"
       gradientTransform="matrix(1.2189884,0,0,1.2189884,-292.77886,-156.13885)" /><linearGradient
       inkscape:collect="always"
       xlink:href="#linearGradient42"
       id="linearGradient61"
       gradientUnits="userSpaceOnUse"
       x1="410.89792"
       y1="318.02917"
       x2="427.30209"
       y2="324.37915"
       gradientTransform="matrix(1.2189884,0,0,1.2189884,-292.77886,-156.13885)" /><linearGradient
       inkscape:collect="always"
       xlink:href="#linearGradient39"
       id="linearGradient62"
       gradientUnits="userSpaceOnUse"
       x1="410.23645"
       y1="293.15833"
       x2="424.92084"
       y2="310.88541"
       gradientTransform="matrix(1.2189884,0,0,1.2189884,-292.77886,-156.13885)" /><linearGradient
       inkscape:collect="always"
       xlink:href="#linearGradient39"
       id="linearGradient63"
       gradientUnits="userSpaceOnUse"
       x1="361.55313"
       y1="276.09271"
       x2="370.68124"
       y2="287.99896"
       gradientTransform="matrix(1.2189884,0,0,1.2189884,-292.77886,-156.13885)" /><linearGradient
       inkscape:collect="always"
       xlink:href="#linearGradient27"
       id="linearGradient64"
       gradientUnits="userSpaceOnUse"
       gradientTransform="matrix(1.2189884,0,0,1.2189884,-630.78402,-319.336)"
       x1="639.10266"
       y1="468.4039"
       x2="655.37158"
       y2="454.25128" /><linearGradient
       inkscape:collect="always"
       xlink:href="#linearGradient23"
       id="linearGradient65"
       gradientUnits="userSpaceOnUse"
       gradientTransform="matrix(1.2189884,0,0,1.2189884,-630.78402,-319.336)"
       x1="613.83795"
       y1="439.84546"
       x2="652.37817"
       y2="424.31711" /><linearGradient
       inkscape:collect="always"
       xlink:href="#linearGradient20"
       id="linearGradient66"
       gradientUnits="userSpaceOnUse"
       gradientTransform="matrix(1.2189884,0,0,1.2189884,-630.78402,-319.336)"
       x1="608.7865"
       y1="429.1814"
       x2="652.93945"
       y2="423.19458" /><linearGradient
       inkscape:collect="always"
       xlink:href="#linearGradient44"
       id="linearGradient67"
       gradientUnits="userSpaceOnUse"
       x1="401.49228"
       y1="273.8978"
       x2="417.76898"
       y2="241.1573"
       gradientTransform="matrix(1.2189884,0,0,1.2189884,-292.77886,-156.13885)" /><linearGradient
       inkscape:collect="always"
       xlink:href="#linearGradient46"
       id="linearGradient68"
       gradientUnits="userSpaceOnUse"
       x1="374.17734"
       y1="240.03476"
       x2="385.77682"
       y2="220.76463"
       gradientTransform="matrix(1.2189884,0,0,1.2189884,-292.77886,-156.13885)" /></defs><rect
     style="opacity:1;fill:#001c34;fill-opacity:1;stroke:none;stroke-width:3.86501;stroke-dasharray:none"
     id="rect68"
     width="361.94998"
     height="361.94998"
     x="-5.7745979e-06"
     y="-4.1744002e-05"
     inkscape:export-filename="..\..\Desktop\hydrosonic.png"
     inkscape:export-xdpi="96"
     inkscape:export-ydpi="96" /><path
     id="path48"
     style="fill:url(#linearGradient68);fill-opacity:1;stroke-width:1.42012"
     d="m 180.97498,112.792 c -14.39625,0.0525 -28.45871,4.34067 -40.43474,12.33 8.01471,0.95552 10.60204,5.09388 15.8595,12.98008 4.9282,7.39229 15.92155,11.2691 17.28938,15.63316 4.62806,-8.02044 7.28586,-17.33356 7.28586,-27.29549 z m -40.43629,12.33103 c -1.45069,0.98388 -2.86563,2.01945 -4.24212,3.10472 1.37649,-1.08527 2.79143,-2.12084 4.24212,-3.10472 z m -5.32215,3.92845 c -1.34317,1.09176 -2.64726,2.23073 -3.90984,3.41477 1.26258,-1.18404 2.56667,-2.32301 3.90984,-3.41477 z m -4.86792,4.30981 c -1.29076,1.24449 -2.53545,2.53589 -3.73156,3.8716 1.19611,-1.33571 2.4408,-2.62711 3.73156,-3.8716 z m -7.98866,9.06818 c -1.31766,1.78495 -2.55366,3.62876 -3.70417,5.52576 1.15051,-1.897 2.38651,-3.74081 3.70417,-5.52576 z m -3.70417,5.52576 c -0.52549,0.89658 -1.03186,1.80422 -1.51877,2.72232 0.48691,-0.9181 0.99328,-1.82574 1.51877,-2.72232 z m -1.51877,2.72232 c -0.47706,0.81696 -0.93828,1.64308 -1.38338,2.47788 0.0261,-0.0182 0.0559,-0.0361 0.0822,-0.0543 l 5.1e-4,-5.2e-4 c 0.41838,-0.81576 0.85203,-1.6236 1.3007,-2.4231 z m 56.54177,3.07578 c -0.4012,0.69466 -0.81748,1.37945 -1.24799,2.05414 0.43065,-0.67486 0.84669,-1.35931 1.24799,-2.05414 z m -1.29191,2.12183 c -0.43333,0.67688 -0.88056,1.34405 -1.34256,1.99988 0.46216,-0.65599 0.9091,-1.32284 1.34256,-1.99988 z m -2.93729,4.14859 c -3.81265,4.88051 -8.44456,9.08387 -13.68547,12.42353 6e-4,0.001 9.5e-4,0.003 0.002,0.004 9.1e-4,0.003 0.002,0.004 0.002,0.005 5.24357,-3.33973 9.86982,-7.54952 13.68185,-12.43231 z m -13.68547,12.42353 c -0.50736,-1.12097 -0.9865,-2.27051 -1.44281,-3.42098 0.45629,1.15047 0.93546,2.30002 1.44281,3.42098 z m -3.97857,-10.16114 c 0.39629,1.05613 0.80295,2.16758 1.22628,3.30781 -0.42353,-1.14069 -0.82981,-2.25129 -1.22628,-3.30781 z m 3.91707,10.21023 c -0.0864,0.0549 -0.17524,0.10631 -0.262,0.16071 -0.0121,0.008 -0.024,0.0156 -0.0362,0.0233 0.099,-0.062 0.19913,-0.12215 0.29817,-0.18397 z m -1.82004,1.10226 c -0.19739,0.1148 -0.39739,0.22557 -0.59635,0.33796 0.19899,-0.11239 0.39895,-0.22315 0.59635,-0.33796 z m -1.78594,0.9927 c -0.0746,0.0397 -0.15,0.0779 -0.22479,0.11731 -0.11045,0.0581 -0.21723,0.12195 -0.32814,0.17931 0.18595,-0.0962 0.36881,-0.19746 0.55293,-0.29662 z m -0.70125,0.37207 c -0.0842,0.0433 -0.16988,0.0843 -0.25476,0.12661 -0.0907,0.046 -0.17925,0.0955 -0.27027,0.14108 -0.008,0.004 -0.0158,0.008 -0.0238,0.0124 0.18382,-0.0919 0.36612,-0.18631 0.5488,-0.28009 z m -0.92242,0.45889 c -0.0546,0.0268 -0.11013,0.052 -0.16485,0.0785 0.0366,-0.0178 0.0741,-0.0338 0.11059,-0.0517 0.0181,-0.009 0.0361,-0.018 0.0543,-0.0269 z m -1.67018,0.78445 c -0.24455,0.10974 -0.49148,0.21519 -0.73794,0.32142 0.0749,-0.0322 0.15162,-0.061 0.22634,-0.0935 0.054,-0.0236 0.10889,-0.0455 0.16278,-0.0693 0.0781,-0.0343 0.15519,-0.0702 0.23306,-0.1049 0.009,-0.004 0.0175,-0.008 0.0264,-0.0119 0.008,-0.004 0.0161,-0.008 0.0243,-0.0114 0.0219,-0.01 0.0432,-0.0207 0.0651,-0.0305 z m -0.5116,0.22789 c -0.13257,0.0578 -0.26696,0.1124 -0.39998,0.1695 -0.0147,0.006 -0.0292,0.0129 -0.0439,0.0191 0.1875,-0.0798 0.37673,-0.15644 0.56327,-0.23823 -0.0394,0.0173 -0.0799,0.0324 -0.11937,0.0496 z m -1.62419,0.67593 c -0.0516,0.0206 -0.10383,0.04 -0.15555,0.0605 -0.013,0.005 -0.0257,0.0109 -0.0387,0.016 0.0648,-0.0255 0.12963,-0.0508 0.1943,-0.0765 z m -0.15555,0.0605 c 0.0379,-0.0149 0.0748,-0.0315 0.11266,-0.0465 -0.15019,0.0597 -0.30029,0.11938 -0.45114,0.17777 0.11284,-0.0437 0.22598,-0.0869 0.33848,-0.13126 z m -18.39939,3.77393 c -0.55567,0.0167 -1.11237,0.03 -1.67225,0.03 0.55994,0 1.11704,-0.0112 1.67225,-0.03 z"
     sodipodi:nodetypes="ccscsccccccccccccccccccsccccccccccccccccccccsccccccsccccsccccscccssssscssccscsccsccsccc" /><path
     id="path49"
     style="fill:url(#linearGradient67);fill-opacity:1;stroke-width:1.9197"
     d="m 217.53244,120.05564 c -5.99792,0 -10.82673,4.82882 -10.82673,10.82673 v 40.96753 h -23.48435 c 2.64762,1.95759 6.73205,3.72333 13.59142,5.17849 13.76726,2.92061 12.86805,4.51044 27.3327,8.03052 1.54612,0.37628 2.94583,1.11939 4.21317,2.17868 v -56.35522 c 0,-5.9979 -4.82827,-10.82673 -10.82621,-10.82673 z m -60.64281,54.72586 c -0.91868,0.43378 -1.83777,0.87909 -2.72903,1.36684 0.89126,-0.48775 1.81035,-0.93306 2.72903,-1.36684 z m 27.10274,19.6634 c 1.42786,0.0653 2.83237,0.16497 4.20698,0.29404 -1.37461,-0.12907 -2.77912,-0.22876 -4.20698,-0.29404 z m 4.20698,0.29404 c 1.37461,0.12907 2.71924,0.28738 4.02818,0.46974 -1.30894,-0.18236 -2.65357,-0.34067 -4.02818,-0.46974 z m 4.02818,0.46974 c 1.30893,0.18236 2.58185,0.38877 3.81268,0.61391 -1.23083,-0.22514 -2.50375,-0.43155 -3.81268,-0.61391 z m 19.73471,5.63893 c 0.39184,0.24355 0.71321,0.47881 0.95756,0.7028 -0.24435,-0.22399 -0.56572,-0.45925 -0.95756,-0.7028 z" /><path
     id="path51"
     style="fill:url(#linearGradient66);fill-opacity:1;stroke-width:1.55517"
     d="m 108.00063,191.29574 c 0.078,0.73891 0.16725,1.47659 0.26768,2.21278 0.20049,-0.004 0.32974,-0.0259 0.53847,-0.0269 7.08565,-0.0599 16.27616,7.21473 28.66181,15.7484 11.40237,7.85619 32.25557,8.74264 36.81688,10.34458 -9.24954,-16.88024 -27.16559,-28.27889 -47.84566,-28.27889 z m 0.26768,2.21278 c 0.25268,2.46092 0.62972,4.90749 1.12965,7.33031 -0.49993,-2.42282 -0.87697,-4.86939 -1.12965,-7.33031 z m 1.12965,7.33031 c 0.0175,0.0696 0.035,0.13921 0.0527,0.20877 -0.0177,-0.0696 -0.0352,-0.13915 -0.0527,-0.20877 z m 0.0527,0.20877 c 0.48957,2.35375 1.09457,4.682 1.81281,6.97632 -0.71824,-2.29432 -1.32324,-4.62257 -1.81281,-6.97632 z m 1.81281,6.97632 c 0.0249,0.0696 0.0498,0.13922 0.0749,0.20877 -0.0251,-0.0695 -0.0501,-0.13914 -0.0749,-0.20877 z m 0.0749,0.20877 c 0.72575,2.29378 1.56392,4.55046 2.51147,6.76186 -0.94755,-2.2114 -1.78572,-4.46808 -2.51147,-6.76186 z m 2.51147,6.76186 0.0594,0.12557 z m 0.0594,0.12557 c 0.96398,2.23507 2.03863,4.42076 3.21996,6.54896 -1.18133,-2.1282 -2.25598,-4.31389 -3.21996,-6.54896 z m 3.21996,6.54896 0.0403,0.0667 z m 0.0403,0.0667 c 1.19554,2.14698 2.49822,4.23252 3.90312,6.24872 -1.4049,-2.0162 -2.70758,-4.10174 -3.90312,-6.24872 z m 58.16802,-0.12816 c 0.13669,0.27646 0.27509,0.55185 0.40721,0.83096 -0.1321,-0.27916 -0.27053,-0.55445 -0.40721,-0.83096 z m 1.2175,2.6293 c 0.11987,0.27901 0.23451,0.56091 0.34985,0.84233 -0.11533,-0.28157 -0.22999,-0.56317 -0.34985,-0.84233 z m -45.28871,1.26194 c -0.37873,0.0179 -0.76109,0.0311 -1.12913,0.0625 0.36797,-0.0314 0.75049,-0.0446 1.12913,-0.0625 z m 46.20597,1.02526 c 0.0935,0.2483 0.19005,0.49515 0.28008,0.74517 -0.09,-0.25013 -0.18657,-0.49678 -0.28008,-0.74517 z m 0.92965,2.67167 c 0.0821,0.2579 0.16195,0.51661 0.2403,0.77618 -0.0783,-0.2596 -0.15829,-0.51825 -0.2403,-0.77618 z m -55.31238,1.50689 c 0.96147,1.25577 1.96331,2.4801 3.00395,3.67109 -1.04064,-1.19099 -2.04248,-2.41532 -3.00395,-3.67109 z m 56.14282,1.35702 c 0.0392,0.15136 0.0727,0.30494 0.11059,0.45682 -0.0378,-0.15192 -0.0715,-0.30542 -0.11059,-0.45682 z m 0.55088,2.37246 c 0.0448,0.21185 0.0905,0.42337 0.1328,0.63614 -0.0423,-0.21284 -0.0881,-0.42421 -0.1328,-0.63614 z m 0.53278,2.88768 c 0.0274,0.17607 0.0507,0.35357 0.0765,0.5302 -0.0257,-0.17671 -0.0491,-0.35405 -0.0765,-0.5302 z m -51.52037,0.0367 c 0.7269,0.72554 1.46897,1.43574 2.2257,2.13011 -0.75673,-0.69437 -1.4988,-1.40457 -2.2257,-2.13011 z m 51.8604,2.57917 c 0.0153,0.14335 0.0333,0.28575 0.0475,0.42943 -0.0142,-0.14371 -0.0323,-0.28605 -0.0475,-0.42943 z m -7.72614,0.001 c 0.72748,0.22525 1.4947,0.4393 2.31097,0.6413 -0.81627,-0.202 -1.58349,-0.41605 -2.31097,-0.6413 z m 2.31097,0.6413 c 0.81626,0.202 1.6816,0.39191 2.60501,0.56896 -0.92341,-0.17705 -1.78875,-0.36696 -2.60501,-0.56896 z m 2.60501,0.56896 c 0.9234,0.17705 1.90491,0.34104 2.95382,0.49144 -1.04891,-0.1504 -2.03042,-0.31439 -2.95382,-0.49144 z m -44.22521,0.69815 c 0.78894,0.67081 1.592,1.32484 2.40864,1.96164 -0.81664,-0.6368 -1.6197,-1.29083 -2.40864,-1.96164 z m 47.26481,0.92139 c 0.0102,0.18565 0.018,0.37195 0.0264,0.5581 -0.008,-0.18621 -0.0162,-0.37239 -0.0264,-0.5581 z m -41.99227,3.1688 c 0.80767,0.58144 1.62708,1.14638 2.45774,1.69447 -0.83066,-0.54809 -1.65007,-1.11303 -2.45774,-1.69447 z m 5.9061,3.76773 c 0.71797,0.43114 1.44327,0.84995 2.17558,1.25625 -0.73231,-0.4063 -1.45761,-0.82511 -2.17558,-1.25625 z m 7.85741,3.95634 c 0.71055,0.28333 1.4255,0.55553 2.14457,0.81649 -0.71907,-0.26096 -1.43402,-0.53316 -2.14457,-0.81649 z m 6.2115,2.28152 c 0.84211,0.26227 1.68888,0.50932 2.5399,0.74104 -0.85102,-0.23172 -1.69779,-0.47877 -2.5399,-0.74104 z m 6.47196,1.73684 c 0.85014,0.19159 1.70362,0.368 2.56005,0.52917 -0.85643,-0.16117 -1.70991,-0.33758 -2.56005,-0.52917 z m 6.85746,1.17978 c 0.73873,0.10344 1.479,0.1956 2.22054,0.27646 -0.74154,-0.0809 -1.48181,-0.17302 -2.22054,-0.27646 z"
     sodipodi:nodetypes="cccscscccccccccccccccccccccccccccccccccccccccccccccccccccccccccccccccccccccccccccccccccccccccccccccc" /><path
     id="path52"
     style="fill:url(#linearGradient65);fill-opacity:1;stroke-width:1.55517"
     d="m 108.80678,193.48165 c -0.20873,0.001 -0.33798,0.0225 -0.53847,0.0269 1.27086,12.39294 5.67753,24.25793 12.80439,34.47594 3.46213,-1.66021 7.64466,-2.67749 12.70671,-2.5151 3.22996,0.10363 8.20235,6.83501 12.17342,8.02432 19.91084,5.96315 18.06433,5.73833 34.84697,8.14472 0.10442,1.38492 0.17518,2.77945 0.17518,4.19199 0,-9.53217 -2.42604,-18.47507 -6.68951,-26.25576 -4.56131,-1.60194 -22.8348,-8.24306 -34.23719,-16.09927 -12.38569,-8.53369 -24.15583,-10.05365 -31.2415,-9.99371 z m 14.27975,37.21737 c 0.95956,1.2534 1.95933,2.47549 2.99775,3.66437 -1.03842,-1.18888 -2.03819,-2.41097 -2.99775,-3.66437 z m 5.71283,6.66057 c 0.72277,0.72123 1.46053,1.42728 2.21278,2.1177 -0.75225,-0.69042 -1.49001,-1.39647 -2.21278,-2.1177 z m 4.82658,4.48965 c 0.78594,0.66827 1.5859,1.31988 2.39933,1.9544 -0.81343,-0.63452 -1.61339,-1.28613 -2.39933,-1.9544 z m 5.26892,4.08709 c 0.80716,0.58108 1.62606,1.14567 2.45619,1.69344 -0.83013,-0.54777 -1.64903,-1.11236 -2.45619,-1.69344 z m 5.90455,3.7667 c 0.71797,0.43114 1.44327,0.84995 2.17558,1.25625 -0.73231,-0.4063 -1.45761,-0.82511 -2.17558,-1.25625 z m 7.85741,3.95634 c 0.71055,0.28333 1.4255,0.55553 2.14457,0.81649 -0.71907,-0.26096 -1.43402,-0.53316 -2.14457,-0.81649 z m 6.2115,2.28152 c 0.84211,0.26227 1.68888,0.50932 2.5399,0.74104 -0.85102,-0.23172 -1.69779,-0.47877 -2.5399,-0.74104 z m 6.47196,1.73684 c 0.85014,0.19159 1.70362,0.368 2.56005,0.52917 -0.85643,-0.16117 -1.70991,-0.33758 -2.56005,-0.52917 z m 6.85746,1.17978 c 0.73873,0.10344 1.479,0.1956 2.22054,0.27646 -0.74154,-0.0809 -1.48181,-0.17302 -2.22054,-0.27646 z"
     sodipodi:nodetypes="cccsscccscccccccccccccccccccccccccccc" /><path
     id="path53"
     style="fill:url(#linearGradient64);fill-opacity:1;stroke-width:1.55517"
     d="m 133.77931,225.46942 c -5.07562,-0.16283 -9.26775,0.85979 -12.73529,2.5279 13.64969,19.637 36.01611,31.38596 59.93088,31.48138 v -13.64807 c 0,-1.41255 -0.0521,-2.80725 -0.15652,-4.19217 -16.78266,-2.40639 -16.34382,-8.3331 -36.25468,-14.29626 -3.97107,-1.18931 -7.55443,-1.76915 -10.78439,-1.87278 z"
     sodipodi:nodetypes="sccscss" /><path
     id="path54"
     style="fill:#72ece9;fill-opacity:1;stroke-width:1.42012"
     d="m 140.54024,125.122 c -10.5471,7.04415 -19.08726,16.70299 -24.7866,28.03343 0.44854,-0.31274 0.91737,-0.62363 1.41077,-0.93224 l 38.60126,20.22822 c 0.001,0.003 0.001,0.004 0.002,0.005 -3.69032,2.35039 -7.68369,4.27037 -11.9109,5.68906 12.68287,-4.25007 23.2575,-13.01589 29.83228,-24.40988 -1.36785,-4.36415 -3.23289,-9.63019 -8.16126,-17.02274 -5.25748,-7.88622 -16.97289,-10.6355 -24.98762,-11.59102 z m -25.45477,29.31139 c -0.31519,0.66732 -0.62029,1.33937 -0.91519,2.0159 0.2949,-0.67653 0.6,-1.34858 0.91519,-2.0159 z m -2.48306,5.8229 c -0.2758,0.72543 -0.54007,1.45519 -0.79271,2.18901 0.25264,-0.73382 0.51691,-1.46358 0.79271,-2.18901 z m -1.99677,6.09162 c -0.21195,0.72618 -0.41265,1.45559 -0.60203,2.18798 0.18938,-0.73239 0.39008,-1.4618 0.60203,-2.18798 z m -1.50586,6.4673 c -0.13039,0.63501 -0.25235,1.27172 -0.36586,1.90996 0.11351,-0.63824 0.23547,-1.27495 0.36586,-1.90996 z m 34.65784,5.36298 c -0.55495,0.18506 -1.11408,0.36105 -1.6769,0.52865 0.56294,-0.16733 1.12185,-0.34384 1.6769,-0.52865 z m -1.88671,0.59015 c -0.52572,0.15424 -1.05522,0.30049 -1.5875,0.43925 0.53253,-0.13854 1.06155,-0.28522 1.5875,-0.43925 z m -1.89807,0.51883 c -0.48921,0.12444 -0.98141,0.24127 -1.47588,0.35243 0.49465,-0.11095 0.9865,-0.2282 1.47588,-0.35243 z m -1.92599,0.45268 c -0.45706,0.0987 -0.91687,0.1898 -1.37821,0.27699 0.46138,-0.087 0.9211,-0.17852 1.37821,-0.27699 z m -1.91047,0.37673 c -0.43567,0.0779 -0.87435,0.14749 -1.31362,0.21497 0.43941,-0.0673 0.8778,-0.13729 1.31362,-0.21497 z m -1.92443,0.3085 c -0.41603,0.0591 -0.83461,0.10999 -1.25367,0.15968 0.4191,-0.0495 0.8376,-0.10073 1.25367,-0.15968 z m -1.9327,0.2403 c -0.41347,0.0438 -0.82967,0.0781 -1.24592,0.11265 0.41628,-0.0344 0.83241,-0.069 1.24592,-0.11265 z m -1.93373,0.17105 c -0.422,0.0297 -0.84709,0.0486 -1.27176,0.0687 0.42479,-0.02 0.84963,-0.0391 1.27176,-0.0687 z m -1.95854,0.10335 c -0.64619,0.0226 -1.29525,0.0351 -1.94717,0.0351 0.65185,0 1.30102,-0.0127 1.94717,-0.0351 z"
     sodipodi:nodetypes="cccccccscccccccccccccccccccccccccccccccccccccccc" /><path
     id="path55"
     style="fill:#72ece9;fill-opacity:1;stroke-width:1.9197"
     d="m 167.29055,171.8499 c -3.84061,0.002 -8.73038,1.89076 -13.12995,4.29844 0.89126,-0.48775 1.81035,-0.93306 2.72903,-1.36684 0.41752,0.80187 -1.02997,3.14028 -0.57019,3.87099 4.51531,7.17612 13.52948,16.20571 27.63986,16.85074 5.71144,0.2611 11.07964,0.0163 15.6409,1.04593 h 7.10551 v 5e-5 c 3.0278,1.04777 4.3714,5.67213 5.3488,6.56807 0.17105,0.15679 1.22706,0.91987 1.43528,1.07313 3.1236,2.29889 10.2062,1.97884 14.48233,1.97884 0.0657,0 0.12991,0.0176 0.19326,0.0475 0.0465,0.0219 0.092,0.0574 0.13746,0.0925 0.0185,0.0142 0.0375,0.0216 0.0558,0.0377 V 186.0449 c -2.84254,0 -8.79562,-3.78381 -10.19863,-4.5346 -15.6168,-8.35695 -23.35477,-2.5011 -34.93866,-9.6604 z"
     sodipodi:nodetypes="cccsscccsssssccscc" /><path
     id="path57"
     style="fill:url(#linearGradient63);fill-opacity:1;stroke:none;stroke-width:4.7114;stroke-dasharray:none"
     d="m 156.88963,174.7815 c -0.91868,0.43378 -1.83777,0.87909 -2.72903,1.36684 -0.21365,0.1169 -0.45067,0.2338 -0.69918,0.34985 -3.86705,2.08418 -8.00318,3.73308 -12.3424,4.89014 -0.0433,0.0151 -0.0801,0.0323 -0.12971,0.045 -0.31452,0.0813 -0.66848,0.16347 -1.02423,0.2465 -0.41128,0.10044 -0.82232,0.2001 -1.23713,0.29145 -3.05275,0.71962 -6.58266,1.72155 -6.54172,4.16357 0.0503,3.00047 2.41988,3.00992 7.62227,4.40387 0.0349,0.01 0.0666,0.0234 0.10077,0.0336 3.01818,0.72868 5.92899,1.71872 8.73745,2.90318 0.11117,0.0312 0.22407,0.0674 0.339,0.11317 4.63194,1.84247 8.44256,2.96054 10.76834,2.96054 h 46.95165 c -4.74836,-0.53857 -17.00189,-1.84316 -22.71334,-2.10426 -14.11039,-0.64503 -21.28672,-10.15976 -25.80204,-17.33589 -0.45978,-0.73071 -0.88318,-1.52564 -1.3007,-2.32751 z m 56.03017,26.76891 c 0.17105,0.15679 0.36176,0.31183 0.56999,0.46509 -0.20824,-0.15326 -0.39894,-0.3083 -0.56999,-0.46509 z m 1.24541,0.91881 c 0.48285,0.29778 1.02799,0.58614 1.61954,0.86144 -0.59155,-0.2753 -1.13669,-0.56366 -1.61954,-0.86144 z m 1.61954,0.86144 c 0.59154,0.27531 1.22939,0.53728 1.89755,0.78342 -0.66816,-0.24614 -1.30601,-0.50811 -1.89755,-0.78342 z m 1.89755,0.78342 c 0.66817,0.24613 1.36675,0.47598 2.07946,0.68626 -0.71271,-0.21028 -1.41129,-0.44013 -2.07946,-0.68626 z m 2.07946,0.68626 c 0.71271,0.21028 1.43955,0.40122 2.16473,0.56896 -0.72518,-0.16774 -1.45202,-0.35868 -2.16473,-0.56896 z m 2.16473,0.56896 c 0.72518,0.16774 1.44881,0.31247 2.15439,0.43098 -0.70558,-0.11851 -1.42921,-0.26324 -2.15439,-0.43098 z m 2.15439,0.43098 c 0.70558,0.11851 1.393,0.21077 2.0469,0.27337 -0.6539,-0.0626 -1.34132,-0.15486 -2.0469,-0.27337 z m 2.0469,0.27337 c 0.6539,0.0626 1.27419,0.0956 1.84434,0.0956 -0.57015,0 -1.19044,-0.033 -1.84434,-0.0956 z m 2.03657,0.14211 c 0.0657,0.0308 0.13044,0.0755 0.1943,0.13177 v -5.1e-4 c -0.0639,-0.0563 -0.12858,-0.10054 -0.1943,-0.13126 z"
     sodipodi:nodetypes="cscccccsccccscssccccccccccccccccccccccccccccc" /><path
     id="path58"
     style="fill:url(#linearGradient62);fill-opacity:1;stroke:none;stroke-width:4.7114;stroke-dasharray:none"
     d="m 206.70571,196.54916 v 24.57008 c 2.92124,2.34327 6.15408,8.90834 10.82653,9.28213 3.57422,0.28593 8.16624,-4.36918 10.82641,-5.51543 v -18.53841 c -0.12507,-0.11019 -0.2531,-0.17828 -0.38653,-0.17828 -4.5612,0 -11.87344,-2.70114 -15.05232,-4.61884 -1.67898,-1.01287 -3.18629,-3.95348 -6.21409,-5.00125 z"
     sodipodi:nodetypes="ccsccssc" /><path
     id="path59"
     style="fill:url(#linearGradient61);fill-opacity:1;stroke:none;stroke-width:4.7114;stroke-dasharray:none"
     d="m 206.70565,221.11913 v 20.26799 c 0,5.99792 4.82864,10.8266 10.8266,10.8266 5.99794,0 10.82659,-4.82868 10.82659,-10.8266 v -16.50101 c -2.66018,1.14625 -6.0404,2.09698 -9.61461,1.81104 -4.67246,-0.37379 -9.11734,-3.23475 -12.03858,-5.57802 z" /><path
     id="path60"
     style="fill:url(#linearGradient60);fill-opacity:1;stroke:none;stroke-width:4.7114;stroke-dasharray:none"
     d="m 131.60038,148.1783 c -0.59701,-0.015 -1.20604,-0.011 -1.82742,0.0126 -0.62139,0.0237 -1.25483,0.0674 -1.89987,0.1329 -0.63478,0.0645 -1.25755,0.15919 -1.869,0.27718 -0.0345,0.006 -0.0683,0.0146 -0.10264,0.0215 -0.5677,0.11239 -1.12488,0.24604 -1.67057,0.39811 -0.0847,0.0238 -0.16777,0.0503 -0.25197,0.075 -0.48024,0.13971 -0.9514,0.29298 -1.41293,0.45858 -0.1467,0.0529 -0.29121,0.10849 -0.43591,0.16379 -0.36948,0.14038 -0.73229,0.28819 -1.08852,0.44221 -1.40752,0.61222 -2.69999,1.3245 -3.87722,2.06301 -0.53735,0.3361 -1.05316,0.67442 -1.5364,1.01546 a 73.343363,73.343363 0 0 0 -7.62719,27.73643 h 18.43931 c 10.81555,0 20.8673,-3.1301 29.32763,-8.51854 -6.4e-4,-10e-4 -0.001,-0.002 -0.002,-0.005 -2.03209,-4.48889 -3.60511,-9.43713 -5.11502,-13.06537 -0.0629,-0.15012 -0.12563,-0.29752 -0.18836,-0.44285 -0.30946,-0.72134 -0.61821,-1.39312 -0.92913,-1.97734 -0.0306,-0.0573 -0.0613,-0.11483 -0.0919,-0.17071 -0.12231,-0.22344 -0.24505,-0.43032 -0.36851,-0.62867 -0.0473,-0.0757 -0.0936,-0.15614 -0.1411,-0.22804 -0.16429,-0.24941 -0.33011,-0.48085 -0.49765,-0.68096 -0.3498,-0.41782 -0.77118,-0.85213 -1.24725,-1.28882 -0.0401,-0.0368 -0.0837,-0.0734 -0.12473,-0.1102 -0.45444,-0.40835 -0.96326,-0.81849 -1.52318,-1.22206 -0.0585,-0.0422 -0.11677,-0.084 -0.17637,-0.12598 -0.58432,-0.41152 -1.22183,-0.81496 -1.91184,-1.19939 -0.0401,-0.0224 -0.0779,-0.0451 -0.11836,-0.0674 -0.72791,-0.39972 -1.51202,-0.77824 -2.35027,-1.12442 -0.0439,-0.0182 -0.0906,-0.0344 -0.13481,-0.0523 -0.8064,-0.3275 -1.66459,-0.62253 -2.56696,-0.87939 -0.14825,-0.0422 -0.29774,-0.0835 -0.44851,-0.12346 -0.28631,-0.076 -0.57716,-0.1474 -0.87246,-0.21481 -0.19311,-0.0441 -0.38703,-0.087 -0.58394,-0.12724 -0.30903,-0.0632 -0.62475,-0.11885 -0.943,-0.17198 -0.19381,-0.0323 -0.38614,-0.0667 -0.58332,-0.0951 -0.35211,-0.0508 -0.71317,-0.0908 -1.07592,-0.1285 -0.17225,-0.0179 -0.34066,-0.0407 -0.51528,-0.0555 -0.54182,-0.0458 -1.09315,-0.0791 -1.65734,-0.0933 z" /></svg>
